<mxfile host="app.diagrams.net" modified="2021-11-24T12:13:58.256Z" agent="5.0 (Windows NT 10.0; Win64; x64) AppleWebKit/537.36 (KHTML, like Gecko) Chrome/96.0.4664.45 Safari/537.36" etag="gF3UUggukSF7LX_cInfk" version="15.7.4" type="github">
  <diagram id="y9wn45LEYkYfquZAV4MT" name="Page-1">
    <mxGraphModel dx="1240" dy="643" grid="1" gridSize="10" guides="1" tooltips="1" connect="1" arrows="1" fold="1" page="1" pageScale="1" pageWidth="850" pageHeight="1100" math="0" shadow="0">
      <root>
        <mxCell id="0" />
        <mxCell id="1" parent="0" />
        <mxCell id="lIwqItvwscYoAez1WJtE-1" value="&lt;font style=&quot;font-size: 14px;&quot;&gt;A&lt;/font&gt;" style="rounded=0;whiteSpace=wrap;html=1;strokeWidth=1;fontSize=14;align=center;" vertex="1" parent="1">
          <mxGeometry x="105" y="320" width="80" height="40" as="geometry" />
        </mxCell>
        <mxCell id="lIwqItvwscYoAez1WJtE-2" value="B" style="rounded=0;whiteSpace=wrap;html=1;fontSize=14;align=center;" vertex="1" parent="1">
          <mxGeometry x="185" y="320" width="80" height="40" as="geometry" />
        </mxCell>
        <mxCell id="lIwqItvwscYoAez1WJtE-3" value="C" style="rounded=0;whiteSpace=wrap;html=1;fontSize=14;align=center;" vertex="1" parent="1">
          <mxGeometry x="265" y="320" width="80" height="40" as="geometry" />
        </mxCell>
        <mxCell id="lIwqItvwscYoAez1WJtE-4" value="D" style="rounded=0;whiteSpace=wrap;html=1;fontSize=14;align=center;" vertex="1" parent="1">
          <mxGeometry x="345" y="320" width="80" height="40" as="geometry" />
        </mxCell>
        <mxCell id="lIwqItvwscYoAez1WJtE-5" value="E" style="rounded=0;whiteSpace=wrap;html=1;fontSize=14;align=center;" vertex="1" parent="1">
          <mxGeometry x="425" y="320" width="80" height="40" as="geometry" />
        </mxCell>
        <mxCell id="lIwqItvwscYoAez1WJtE-6" value="F" style="rounded=0;whiteSpace=wrap;html=1;fontSize=14;align=center;" vertex="1" parent="1">
          <mxGeometry x="505" y="320" width="80" height="40" as="geometry" />
        </mxCell>
        <mxCell id="lIwqItvwscYoAez1WJtE-7" value="G" style="rounded=0;whiteSpace=wrap;html=1;fontSize=14;align=center;" vertex="1" parent="1">
          <mxGeometry x="585" y="320" width="80" height="40" as="geometry" />
        </mxCell>
        <mxCell id="lIwqItvwscYoAez1WJtE-8" value="H" style="rounded=0;whiteSpace=wrap;html=1;fontSize=14;align=center;" vertex="1" parent="1">
          <mxGeometry x="665" y="320" width="80" height="40" as="geometry" />
        </mxCell>
        <mxCell id="lIwqItvwscYoAez1WJtE-9" value="I" style="rounded=0;whiteSpace=wrap;html=1;fontSize=14;align=center;" vertex="1" parent="1">
          <mxGeometry x="740" y="320" width="80" height="40" as="geometry" />
        </mxCell>
        <mxCell id="lIwqItvwscYoAez1WJtE-10" value="J" style="rounded=0;whiteSpace=wrap;html=1;fontSize=14;align=center;" vertex="1" parent="1">
          <mxGeometry x="820" y="320" width="80" height="40" as="geometry" />
        </mxCell>
        <mxCell id="lIwqItvwscYoAez1WJtE-11" value="" style="endArrow=none;html=1;rounded=0;strokeWidth=2;" edge="1" parent="1">
          <mxGeometry width="50" height="50" relative="1" as="geometry">
            <mxPoint x="140" y="420" as="sourcePoint" />
            <mxPoint x="140" y="380" as="targetPoint" />
          </mxGeometry>
        </mxCell>
        <mxCell id="lIwqItvwscYoAez1WJtE-12" value="" style="endArrow=none;html=1;rounded=0;strokeWidth=2;" edge="1" parent="1">
          <mxGeometry width="50" height="50" relative="1" as="geometry">
            <mxPoint x="224.5" y="420" as="sourcePoint" />
            <mxPoint x="224.5" y="380" as="targetPoint" />
            <Array as="points">
              <mxPoint x="224.5" y="400" />
            </Array>
          </mxGeometry>
        </mxCell>
        <mxCell id="lIwqItvwscYoAez1WJtE-13" value="" style="endArrow=none;html=1;rounded=0;strokeWidth=2;" edge="1" parent="1">
          <mxGeometry width="50" height="50" relative="1" as="geometry">
            <mxPoint x="140" y="420" as="sourcePoint" />
            <mxPoint x="300" y="420" as="targetPoint" />
          </mxGeometry>
        </mxCell>
        <mxCell id="lIwqItvwscYoAez1WJtE-14" value="" style="endArrow=classic;html=1;rounded=0;strokeWidth=2;" edge="1" parent="1">
          <mxGeometry width="50" height="50" relative="1" as="geometry">
            <mxPoint x="300" y="420" as="sourcePoint" />
            <mxPoint x="300" y="380" as="targetPoint" />
          </mxGeometry>
        </mxCell>
        <mxCell id="lIwqItvwscYoAez1WJtE-15" value="" style="endArrow=none;html=1;rounded=0;strokeWidth=2;" edge="1" parent="1">
          <mxGeometry width="50" height="50" relative="1" as="geometry">
            <mxPoint x="140" y="480" as="sourcePoint" />
            <mxPoint x="140" y="440" as="targetPoint" />
          </mxGeometry>
        </mxCell>
        <mxCell id="lIwqItvwscYoAez1WJtE-17" value="" style="endArrow=none;html=1;rounded=0;strokeWidth=2;" edge="1" parent="1">
          <mxGeometry width="50" height="50" relative="1" as="geometry">
            <mxPoint x="140" y="480" as="sourcePoint" />
            <mxPoint x="470" y="480" as="targetPoint" />
          </mxGeometry>
        </mxCell>
        <mxCell id="lIwqItvwscYoAez1WJtE-18" value="" style="endArrow=classic;html=1;rounded=0;strokeWidth=2;" edge="1" parent="1">
          <mxGeometry width="50" height="50" relative="1" as="geometry">
            <mxPoint x="384.5" y="480" as="sourcePoint" />
            <mxPoint x="384.5" y="440" as="targetPoint" />
            <Array as="points">
              <mxPoint x="384.5" y="460" />
            </Array>
          </mxGeometry>
        </mxCell>
        <mxCell id="lIwqItvwscYoAez1WJtE-19" value="" style="endArrow=classic;html=1;rounded=0;strokeWidth=2;" edge="1" parent="1">
          <mxGeometry width="50" height="50" relative="1" as="geometry">
            <mxPoint x="470" y="480" as="sourcePoint" />
            <mxPoint x="470" y="440" as="targetPoint" />
            <Array as="points">
              <mxPoint x="470" y="460" />
              <mxPoint x="470.5" y="450" />
            </Array>
          </mxGeometry>
        </mxCell>
        <mxCell id="lIwqItvwscYoAez1WJtE-20" value="" style="endArrow=none;html=1;rounded=0;strokeWidth=2;" edge="1" parent="1">
          <mxGeometry width="50" height="50" relative="1" as="geometry">
            <mxPoint x="379.5" y="549" as="sourcePoint" />
            <mxPoint x="379.5" y="509" as="targetPoint" />
          </mxGeometry>
        </mxCell>
        <mxCell id="lIwqItvwscYoAez1WJtE-21" value="" style="endArrow=none;html=1;rounded=0;strokeWidth=2;" edge="1" parent="1">
          <mxGeometry width="50" height="50" relative="1" as="geometry">
            <mxPoint x="379.5" y="549" as="sourcePoint" />
            <mxPoint x="870" y="549" as="targetPoint" />
          </mxGeometry>
        </mxCell>
        <mxCell id="lIwqItvwscYoAez1WJtE-22" value="" style="endArrow=classic;html=1;rounded=0;strokeWidth=2;" edge="1" parent="1">
          <mxGeometry width="50" height="50" relative="1" as="geometry">
            <mxPoint x="779.58" y="549" as="sourcePoint" />
            <mxPoint x="779.58" y="509" as="targetPoint" />
            <Array as="points">
              <mxPoint x="779.58" y="529" />
            </Array>
          </mxGeometry>
        </mxCell>
        <mxCell id="lIwqItvwscYoAez1WJtE-23" value="" style="endArrow=classic;html=1;rounded=0;strokeWidth=2;" edge="1" parent="1">
          <mxGeometry width="50" height="50" relative="1" as="geometry">
            <mxPoint x="870" y="550" as="sourcePoint" />
            <mxPoint x="870" y="510" as="targetPoint" />
            <Array as="points">
              <mxPoint x="870" y="530" />
              <mxPoint x="870.5" y="520" />
            </Array>
          </mxGeometry>
        </mxCell>
        <mxCell id="lIwqItvwscYoAez1WJtE-24" value="" style="endArrow=none;html=1;rounded=0;strokeWidth=2;" edge="1" parent="1">
          <mxGeometry width="50" height="50" relative="1" as="geometry">
            <mxPoint x="224.17000000000002" y="620" as="sourcePoint" />
            <mxPoint x="224.17000000000002" y="580" as="targetPoint" />
          </mxGeometry>
        </mxCell>
        <mxCell id="lIwqItvwscYoAez1WJtE-26" value="" style="endArrow=none;html=1;rounded=0;strokeWidth=2;" edge="1" parent="1">
          <mxGeometry width="50" height="50" relative="1" as="geometry">
            <mxPoint x="224.17000000000002" y="620" as="sourcePoint" />
            <mxPoint x="540" y="620" as="targetPoint" />
          </mxGeometry>
        </mxCell>
        <mxCell id="lIwqItvwscYoAez1WJtE-27" value="" style="endArrow=classic;html=1;rounded=0;strokeWidth=2;" edge="1" parent="1">
          <mxGeometry width="50" height="50" relative="1" as="geometry">
            <mxPoint x="540.0000000000002" y="620" as="sourcePoint" />
            <mxPoint x="540.0000000000002" y="580" as="targetPoint" />
          </mxGeometry>
        </mxCell>
        <mxCell id="lIwqItvwscYoAez1WJtE-28" value="" style="endArrow=none;html=1;rounded=0;strokeWidth=2;" edge="1" parent="1">
          <mxGeometry width="50" height="50" relative="1" as="geometry">
            <mxPoint x="544.4100000000001" y="690" as="sourcePoint" />
            <mxPoint x="544.4100000000001" y="650" as="targetPoint" />
          </mxGeometry>
        </mxCell>
        <mxCell id="lIwqItvwscYoAez1WJtE-30" value="" style="endArrow=none;html=1;rounded=0;strokeWidth=2;" edge="1" parent="1">
          <mxGeometry width="50" height="50" relative="1" as="geometry">
            <mxPoint x="544.4100000000001" y="690" as="sourcePoint" />
            <mxPoint x="704.4100000000001" y="690" as="targetPoint" />
          </mxGeometry>
        </mxCell>
        <mxCell id="lIwqItvwscYoAez1WJtE-31" value="" style="endArrow=classic;html=1;rounded=0;strokeWidth=2;" edge="1" parent="1">
          <mxGeometry width="50" height="50" relative="1" as="geometry">
            <mxPoint x="704.4100000000001" y="690" as="sourcePoint" />
            <mxPoint x="704.4100000000001" y="650" as="targetPoint" />
          </mxGeometry>
        </mxCell>
        <mxCell id="lIwqItvwscYoAez1WJtE-36" value="" style="endArrow=classic;html=1;rounded=0;strokeWidth=2;" edge="1" parent="1">
          <mxGeometry width="50" height="50" relative="1" as="geometry">
            <mxPoint x="630.0000000000001" y="689.9999999999998" as="sourcePoint" />
            <mxPoint x="630.0000000000001" y="650" as="targetPoint" />
          </mxGeometry>
        </mxCell>
      </root>
    </mxGraphModel>
  </diagram>
</mxfile>
